<svg xmlns="http://www.w3.org/2000/svg" width="24" height="24" viewBox="0 0 24 24"><g fill="none"><path fill="url(#tokenBrandedRainbow0)" d="M2 6.5h1.5c7.732 0 14 6.268 14 14V22h3a1.5 1.5 0 0 0 1.5-1.5C22 10.283 13.717 2 3.5 2A1.5 1.5 0 0 0 2 3.5z"/><path fill="url(#tokenBrandedRainbow5)" d="M18 20.5h4a1.5 1.5 0 0 1-1.5 1.5H18z"/><path fill="url(#tokenBrandedRainbow6)" d="M3.5 2v4H2V3.5A1.5 1.5 0 0 1 3.5 2"/><path fill="url(#tokenBrandedRainbow1)" d="M2 6h1.5C11.508 6 18 12.492 18 20.5V22h-4.5v-1.5c0-5.523-4.477-10-10-10H2z"/><path fill="url(#tokenBrandedRainbow7)" d="M14 20.5h4V22h-4z"/><path fill="url(#tokenBrandedRainbow8)" d="M2 10V6h1.5v4z"/><path fill="url(#tokenBrandedRainbow2)" d="M2 12.5A1.5 1.5 0 0 0 3.5 14a6.5 6.5 0 0 1 6.5 6.5a1.5 1.5 0 0 0 1.5 1.5H14v-1.5C14 14.701 9.299 10 3.5 10H2z"/><path fill="url(#tokenBrandedRainbow3)" d="M10 20.5h4V22h-2.5a1.5 1.5 0 0 1-1.5-1.5"/><path fill="url(#tokenBrandedRainbow4)" d="M3.5 14A1.5 1.5 0 0 1 2 12.5V10h1.5z"/><defs><radialGradient id="tokenBrandedRainbow0" cx="0" cy="0" r="1" gradientTransform="rotate(-90 12 8.5)scale(18.5)" gradientUnits="userSpaceOnUse"><stop offset=".77" stop-color="#ff4000"/><stop offset="1" stop-color="#8754c9"/></radialGradient><radialGradient id="tokenBrandedRainbow1" cx="0" cy="0" r="1" gradientTransform="rotate(-90 12 8.5)scale(14.5)" gradientUnits="userSpaceOnUse"><stop offset=".724" stop-color="#fff700"/><stop offset="1" stop-color="#ff9901"/></radialGradient><radialGradient id="tokenBrandedRainbow2" cx="0" cy="0" r="1" gradientTransform="rotate(-90 12 8.5)scale(10.5)" gradientUnits="userSpaceOnUse"><stop offset=".595" stop-color="#0af"/><stop offset="1" stop-color="#01da40"/></radialGradient><radialGradient id="tokenBrandedRainbow3" cx="0" cy="0" r="1" gradientTransform="matrix(4.25 0 0 11.3333 9.75 21.25)" gradientUnits="userSpaceOnUse"><stop stop-color="#0af"/><stop offset="1" stop-color="#01da40"/></radialGradient><radialGradient id="tokenBrandedRainbow4" cx="0" cy="0" r="1" gradientTransform="matrix(0 -4.25 80.5926 0 2.75 14.25)" gradientUnits="userSpaceOnUse"><stop stop-color="#0af"/><stop offset="1" stop-color="#01da40"/></radialGradient><linearGradient id="tokenBrandedRainbow5" x1="17.75" x2="22" y1="21.25" y2="21.25" gradientUnits="userSpaceOnUse"><stop stop-color="#ff4000"/><stop offset="1" stop-color="#8754c9"/></linearGradient><linearGradient id="tokenBrandedRainbow6" x1="2.75" x2="2.75" y1="2" y2="6.25" gradientUnits="userSpaceOnUse"><stop stop-color="#8754c9"/><stop offset="1" stop-color="#ff4000"/></linearGradient><linearGradient id="tokenBrandedRainbow7" x1="14" x2="18" y1="21.25" y2="21.25" gradientUnits="userSpaceOnUse"><stop stop-color="#fff700"/><stop offset="1" stop-color="#ff9901"/></linearGradient><linearGradient id="tokenBrandedRainbow8" x1="2.75" x2="2.75" y1="10" y2="6" gradientUnits="userSpaceOnUse"><stop stop-color="#fff700"/><stop offset="1" stop-color="#ff9901"/></linearGradient></defs></g></svg>